<?xml version="1.0" standalone="no"?><!DOCTYPE svg PUBLIC "-//W3C//DTD SVG 1.1//EN" "http://www.w3.org/Graphics/SVG/1.1/DTD/svg11.dtd"><svg t="1627435109382" class="icon" viewBox="0 0 1024 1024" version="1.1" xmlns="http://www.w3.org/2000/svg" p-id="9645" xmlns:xlink="http://www.w3.org/1999/xlink" width="200" height="200"><defs><style type="text/css">@font-face { font-family: feedback-iconfont; src: url("//at.alicdn.com/t/font_1031158_1uhr8ri0pk5.eot?#iefix") format("embedded-opentype"), url("//at.alicdn.com/t/font_1031158_1uhr8ri0pk5.woff2") format("woff2"), url("//at.alicdn.com/t/font_1031158_1uhr8ri0pk5.woff") format("woff"), url("//at.alicdn.com/t/font_1031158_1uhr8ri0pk5.ttf") format("truetype"), url("//at.alicdn.com/t/font_1031158_1uhr8ri0pk5.svg#iconfont") format("svg"); }
</style></defs><path d="M513.834 1022.38c20.428-0.171 40.644-1.237 60.816-4.01a503.421 503.421 0 0 0 134.172-36.805A529.01 529.01 0 0 0 870.587 873.11 510.842 510.842 0 0 0 974.65 726.954a503.037 503.037 0 0 0 43.502-148.246c6.354-49.472 5.757-100.053-1.92-149.226a510.074 510.074 0 0 0-33.82-118.904 477.534 477.534 0 0 0-36.421-68.962C896.176 163.27 823.973 100.279 740.85 58.186a547.392 547.392 0 0 0-92.632-37.062h-0.213c5.075 2.687 10.235 5.63 14.713 8.572 5.118 3.156 10.193 6.227 14.97 9.596a380.85 380.85 0 0 1 66.489 56.722c45.335 48.833 76.639 108.668 94.594 172.342 12.112 41.881 18.51 85.212 21.11 128.67 1.877 31.688 1.877 63.59-2.004 95.064-6.354 54.163-23.627 107.047-52.372 153.363a318.797 318.797 0 0 1-81.16 88.88c-53.054 39.577-122.7 63.204-189.188 47.51a167.011 167.011 0 0 1-31.9-11.004 200.106 200.106 0 0 1-33.224-19.149 259.302 259.302 0 0 1-53.055-47.169 277.513 277.513 0 0 1-44.738-74.507 314.19 314.19 0 0 1-21.068-108.326c-1.28-54.292 9.596-108.882 36.422-156.52a274.272 274.272 0 0 1 70.924-81.8c9.596-7.59 19.789-14.201 30.024-20.428l0.683-0.299a218.402 218.402 0 0 0-61.457-5.117 211.621 211.621 0 0 0-52.372 10.193c-15.31 5.117-30.024 11.557-43.458 19.191a262.117 262.117 0 0 0-31.262 21.111c-8.998 7.677-17.912 15.311-26.228 23.67-47.894 49.174-75.403 114.383-86.235 181.512-6.398 41.496-6.398 83.633-3.881 125.855 4.478 59.452 16.675 118.818 40.302 173.195a363.321 363.321 0 0 0 57.49 92.675 347.158 347.158 0 0 0 133.575 95.148 338.372 338.372 0 0 0 90.116 23.03c3.156 0.64 6.355 0.64 8.913 0.64l-0.895-1.365z m-125.13-16.975a174.9 174.9 0 0 1-19.192-9.724 362.511 362.511 0 0 1-86.918-65.422c-46.657-48.534-77.918-109.478-95.83-174.048a647.658 647.658 0 0 1-21.111-135.28 517.836 517.836 0 0 1 1.961-88.795c5.758-53.609 21.111-106.663 47.937-152.68a293.805 293.805 0 0 1 76.042-87.558 265.7 265.7 0 0 1 69.645-38.383 228.723 228.723 0 0 1 150.208-1.92c1.236 0 1.236 0 1.919 1.28 0.64 0.64 1.919 0.64 2.559 1.28 1.919 0.682 4.435 1.919 7.037 3.155 10.193 5.118 20.428 11.558 30.024 17.913a268.429 268.429 0 0 1 89.434 106.706c17.912 38.98 26.228 82.482 26.91 125.3 0.598 46.018-7.676 91.993-27.507 134.173a273.845 273.845 0 0 1-112.507 120.78c3.839 1.28 7.677 1.919 11.558 3.198 9.596 1.877 19.15 3.156 29.342 3.156 62.608 1.92 123.34-28.105 168.035-70.242a212.888 212.888 0 0 0 23.03-24.949c9.596-11.515 18.552-22.987 26.186-35.1 10.193-15.993 18.552-31.986 26.186-49.216a345.964 345.964 0 0 0 21.708-70.967c8.359-42.818 8.999-86.235 6.354-129.053-5.757-86.235-28.702-172.513-78.558-244.12a386.18 386.18 0 0 0-23.67-30.664 420.854 420.854 0 0 0-45.335-44.098 361.53 361.53 0 0 0-58.13-39.024A423.37 423.37 0 0 0 563.861 5.6l-12.795-2.56c-8.914-1.279-17.912-1.876-27.04-2.558a360.507 360.507 0 0 0-43.287 0.682c-30.025 1.92-60.22 6.824-90.074 14.373C247.537 52.47 122.322 152.225 55.663 284.563A504.743 504.743 0 0 0 10.37 418.137a503.72 503.72 0 0 0-4.435 160.998c5.117 43.501 15.95 86.278 33.18 126.964 9.681 24.31 21.793 47.937 35.185 70.285 46.657 76.042 114.425 138.01 192.344 180.829 29.342 16.675 60.049 29.427 91.992 40.302 9.639 3.156 19.192 6.355 29.385 8.914l0.683-1.024z" p-id="9646"></path></svg>