<?xml version="1.0" standalone="no"?><!DOCTYPE svg PUBLIC "-//W3C//DTD SVG 1.1//EN" "http://www.w3.org/Graphics/SVG/1.1/DTD/svg11.dtd"><svg t="1627411840257" class="icon" viewBox="0 0 1024 1024" version="1.1" xmlns="http://www.w3.org/2000/svg" p-id="3425" xmlns:xlink="http://www.w3.org/1999/xlink" width="200" height="200"><defs><style type="text/css">@font-face { font-family: feedback-iconfont; src: url("//at.alicdn.com/t/font_1031158_1uhr8ri0pk5.eot?#iefix") format("embedded-opentype"), url("//at.alicdn.com/t/font_1031158_1uhr8ri0pk5.woff2") format("woff2"), url("//at.alicdn.com/t/font_1031158_1uhr8ri0pk5.woff") format("woff"), url("//at.alicdn.com/t/font_1031158_1uhr8ri0pk5.ttf") format("truetype"), url("//at.alicdn.com/t/font_1031158_1uhr8ri0pk5.svg#iconfont") format("svg"); }
</style></defs><path d="M891.136 674.592v49.632h84.544c17.312 0 47.072-13.44 48.096-51.008v-19.2c0-32.096-24.832-51.008-48.096-51.008h-42.144v-23.04h83.52v-49.92h-80.16c-20.672 0-48.352 18.112-48.352 51.84v17.28c0 33.728 27.424 51.008 48.352 51.008 58.176 0.288-13.952 0 39.808 0v24.128l-85.6 0.288z m-453.024-12.064s45.248-4.128 45.248-66.112c0-61.984-54.816-67.744-54.816-67.744h-98.784v195.552h49.664v-47.168l42.912 47.168h73.44l-57.664-61.728z m-19.136-40.064h-39.552v-44.704h39.808s11.104 4.384 11.104 22.208c0 17.824-11.392 22.496-11.392 22.496z m186.944-92.416h-50.432c-35.936 0-48.096 34.56-48.096 51.008v143.168h50.432v-34.272h47.328v34.272h48.864v-143.168c0-41.696-35.68-51.008-48.096-51.008z m-0.768 104.512h-47.584v-47.456s0-10.688 15.776-10.688h17.312c13.952 0 14.208 10.688 14.208 10.688v47.456h0.256z m71.904-104.512h52.48v194.208h-52.48v-194.208z m126.176 144v-144h-52.224v194.208h122.816v-50.208h-70.592zM18.176 724.224H222.464s-39.04-188.992 90.24-265.504c28.192-14.528 117.92-68.832 264.8 46.368 4.64-4.128 9.056-7.392 9.056-7.392s-134.464-142.368-284.192-126.432c-75.232 7.136-167.808 79.808-222.112 175.808S18.208 724.256 18.208 724.256z m0 0H222.464s-39.04-188.992 90.24-265.504c28.192-14.528 117.92-68.832 264.8 46.368 4.64-4.128 9.056-7.392 9.056-7.392s-134.464-142.368-284.192-126.432c-75.232 7.136-167.808 79.808-222.112 175.808S18.208 724.256 18.208 724.256z m0 0H222.464s-39.04-188.992 90.24-265.504c28.192-14.528 117.92-68.832 264.8 46.368 4.64-4.128 9.056-7.392 9.056-7.392s-134.464-142.368-284.192-126.432c-75.52 7.136-168.096 79.808-222.368 175.808S18.208 724.256 18.208 724.256z m425.632-337.632l1.024-18.368c-2.336-1.376-8.8-4.672-25.088-9.6l-1.024 18.112c8.544 3.008 16.8 6.304 25.088 9.888z m-24.576 58.144l-1.024 17.28c8.544 0.288 17.056 1.376 25.6 3.296l1.024-16.992a172.416 172.416 0 0 0-25.6-3.552z m-95.68-85.568h2.592l-5.184-16.736c-8.032 0-16.288 0.544-24.832 1.632l4.928 16.192c7.488-0.832 15.008-1.088 22.496-1.088z m12.416 100.928l5.952 18.912a157.76 157.76 0 0 1 22.496-9.6l-5.696-18.112c-8.8 2.752-16.288 5.76-22.752 8.768z m-117.408-72.128l-11.648-18.912c-6.464 3.552-13.184 7.392-20.16 11.808l11.904 19.2c6.72-4.384 13.184-8.512 19.904-12.064z m53.024 123.424l12.416 19.744a151.68 151.68 0 0 1 15.264-19.488l-11.648-18.656c-5.952 5.76-11.392 12.064-16.032 18.368z m-37.504 88.32l20.96 17.568a228.8 228.8 0 0 1 5.44-32.096l-18.624-15.648a268.16 268.16 0 0 0-7.744 30.176zM120.832 469.44l-18.368-16.992c-6.72 6.848-13.184 13.728-19.136 20.576l19.904 18.112c5.44-7.392 11.392-14.816 17.6-21.664z m-78.112 122.592l-29.728-11.52C8.064 592.32 2.656 606.016 0.064 613.44l29.728 11.52c3.36-9.312 8.8-22.752 12.928-32.928z m187.488 77.344c0.512 14.528 1.824 26.336 3.104 34.56l31.04 11.808a383.904 383.904 0 0 1-6.208-35.648l-27.936-10.688z" fill="#CC0000" p-id="3426"></path></svg>