<?xml version="1.0" standalone="no"?><!DOCTYPE svg PUBLIC "-//W3C//DTD SVG 1.1//EN" "http://www.w3.org/Graphics/SVG/1.1/DTD/svg11.dtd"><svg t="1627411718231" class="icon" viewBox="0 0 1024 1024" version="1.1" xmlns="http://www.w3.org/2000/svg" p-id="1233" xmlns:xlink="http://www.w3.org/1999/xlink" width="200" height="200"><defs><style type="text/css">@font-face { font-family: feedback-iconfont; src: url("//at.alicdn.com/t/font_1031158_1uhr8ri0pk5.eot?#iefix") format("embedded-opentype"), url("//at.alicdn.com/t/font_1031158_1uhr8ri0pk5.woff2") format("woff2"), url("//at.alicdn.com/t/font_1031158_1uhr8ri0pk5.woff") format("woff"), url("//at.alicdn.com/t/font_1031158_1uhr8ri0pk5.ttf") format("truetype"), url("//at.alicdn.com/t/font_1031158_1uhr8ri0pk5.svg#iconfont") format("svg"); }
</style></defs><path d="M731.136 773.632l217.6 193.024-428.544-33.792c83.968-50.688 153.088-111.616 204.8-159.232h6.144z m240.64 115.712l39.936-524.8c-19.968 50.688-51.2 109.568-92.16 172.544l52.224 352.256z m-226.304-127.488l217.088 192.512-57.856-394.752c-47.616 71.68-100.864 138.752-159.232 202.24z m-253.44 187.904c-45.568 25.6-93.696 46.08-143.872 61.44l500.224-33.792-356.352-27.648z m-418.304-252.416L204.8 1003.52l108.032-357.376-239.104 51.2z m270.336-69.12l365.056 117.248-93.184-369.664-271.872 252.416z m292.352-288.768l340.48-23.04-265.728-217.6-74.752 240.64zM830.464 4.608L607.232 3.584 706.56 73.216 830.464 4.608zM8.192 566.784L0.512 784.384l53.76-97.792-46.08-119.808z m122.368 87.552c42.496 3.072 85.504-6.656 128.512-25.6 31.232-14.848 60.928-32.256 89.6-51.712 47.104-33.792 90.624-71.68 131.584-112.64 158.72-157.184 224.256-333.824 154.624-403.456-16.384-16.896-40.448-25.6-70.656-25.6-91.648-0.512-228.352 68.608-345.088 184.32S35.84 460.8 35.328 553.472c0 32.768 8.704 58.88 27.136 77.312s39.424 22.528 68.096 23.552z m331.264 289.792l14.848-8.192-146.944-282.624-110.592 366.592 8.704-1.024 28.672-4.096c61.952-10.752 121.856-29.696 178.688-56.32l27.136-13.312-0.512-1.024z m300.032-233.984l3.072-4.096 7.68-8.704 10.24-12.8 14.336-18.432 13.824-16.896 14.336-18.432c10.752-14.336 20.992-28.672 32.768-44.544 11.776-15.872 23.552-33.792 34.816-51.2l-19.968-12.288L644.608 384l90.112 357.888 26.624-30.72 0.512-1.024z m255.488-575.488l-281.088-39.424 267.776 219.136c9.216-29.184 15.36-59.392 18.432-89.6 0.512-3.584 0.512-8.192 1.024-12.288s0.512-7.68 0.512-11.264c0.512-22.528-1.536-45.056-6.656-66.56z m-108.032 384.512l2.56-3.072c5.12-7.68 13.312-19.968 21.504-34.816 23.552-41.472 52.736-100.352 65.024-144.384l-349.696 23.552L880.64 502.784l28.16 17.408 0.512-1.024z m-419.328 413.184h1.024c76.288-42.496 144.384-94.208 220.672-168.448l-371.2-120.32 149.504 288.768zM0 823.808c1.536 48.64 11.776 88.576 30.72 118.784l17.408-206.848L0 823.808z m67.584-101.376l-19.968 238.08c28.672 37.376 66.56 54.272 122.88 54.272h17.92l-9.728-25.088c-22.016-53.76-83.968-206.848-111.104-267.264zM1012.736 120.32c-4.096-12.288-9.216-23.552-15.36-34.816-25.6-42.496-69.12-69.12-130.048-79.872l-136.192 75.264 281.6 39.424z" fill="#D52900" p-id="1234"></path></svg>