<?xml version="1.0" standalone="no"?><!DOCTYPE svg PUBLIC "-//W3C//DTD SVG 1.1//EN" "http://www.w3.org/Graphics/SVG/1.1/DTD/svg11.dtd"><svg t="1627429946387" class="icon" viewBox="0 0 1372 1024" version="1.1" xmlns="http://www.w3.org/2000/svg" p-id="2130" xmlns:xlink="http://www.w3.org/1999/xlink" width="267.96875" height="200"><defs><style type="text/css">@font-face { font-family: feedback-iconfont; src: url("//at.alicdn.com/t/font_1031158_1uhr8ri0pk5.eot?#iefix") format("embedded-opentype"), url("//at.alicdn.com/t/font_1031158_1uhr8ri0pk5.woff2") format("woff2"), url("//at.alicdn.com/t/font_1031158_1uhr8ri0pk5.woff") format("woff"), url("//at.alicdn.com/t/font_1031158_1uhr8ri0pk5.ttf") format("truetype"), url("//at.alicdn.com/t/font_1031158_1uhr8ri0pk5.svg#iconfont") format("svg"); }
</style></defs><path d="M417.593634 984.40712a50.594178 50.594178 0 0 1-2.712796-5.575706 71.460188 71.460188 0 0 1-4.857299-40.300566H85.742576l481.912628-848.065005 158.210681 278.115183 45.876272-81.174785L633.829194 44.444817c-3.860105-7.001801-27.154764-44.444817-67.315937-44.444817-18.147853 0-44.16067 7.859602-65.310828 45.018471L13.001047 903.371728c-4.144251 7.430702-24.297215 46.449927-4.289005 81.035392 9.146304 15.719204 28.58622 34.440712 71.460188 34.440712H489.053822c-42.589822 0-62.313885-18.437361-71.460188-34.440712z" fill="#01C58E" p-id="2131"></path><path d="M1357.69533 903.371728L956.533948 196.65089c-4.144251-7.430702-27.299518-45.018471-67.605445-45.018471-18.147853 0-44.155309 7.720209-65.310828 44.873717l-51.875518 90.900105 46.160419 81.169424 71.460188-126.472042 396.877739 696.427225h-150.919372c1.930052 11.510618 0.847079 23.326827-3.147058 34.30132a43.73177 43.73177 0 0 1-3.141696 7.001801l-1.286702 2.573403c-20.292356 34.580105-64.174241 36.440461-72.741528 36.44046h236.093654c8.717403 0 52.449173-1.854995 72.74689-36.44046 9.006911-15.724565 15.435058-42.160921-6.149361-79.035644z" fill="#108775" p-id="2132"></path><path d="M1127.745675 982.407372l1.286702-2.573403c1.249173-2.241005 2.30534-4.583874 3.141696-7.001801 3.994136-10.974492 5.07711-22.78534 3.147058-34.30132a104.469445 104.469445 0 0 0-13.151162-35.15912l-303.983246-534.790702-46.444566-81.174785-46.160419 81.169424L421.737885 903.371728a108.190157 108.190157 0 0 0-11.714346 35.15912 71.460188 71.460188 0 0 0 4.428398 40.300566c0.788105 1.913969 1.694157 3.774325 2.712796 5.575706 9.146304 15.719204 28.58622 34.440712 71.460188 34.440712h565.950325c9.00155 0 52.878073-1.854995 73.170429-36.44046zM771.742157 449.755812l277.831037 488.775036H494.055874l277.686283-488.775036z" fill="#2F495E" p-id="2133"></path></svg>