<?xml version="1.0" standalone="no"?><!DOCTYPE svg PUBLIC "-//W3C//DTD SVG 1.1//EN" "http://www.w3.org/Graphics/SVG/1.1/DTD/svg11.dtd"><svg t="1627414452398" class="icon" viewBox="0 0 1024 1024" version="1.1" xmlns="http://www.w3.org/2000/svg" p-id="4874" xmlns:xlink="http://www.w3.org/1999/xlink" width="200" height="200"><defs><style type="text/css">@font-face { font-family: feedback-iconfont; src: url("//at.alicdn.com/t/font_1031158_1uhr8ri0pk5.eot?#iefix") format("embedded-opentype"), url("//at.alicdn.com/t/font_1031158_1uhr8ri0pk5.woff2") format("woff2"), url("//at.alicdn.com/t/font_1031158_1uhr8ri0pk5.woff") format("woff"), url("//at.alicdn.com/t/font_1031158_1uhr8ri0pk5.ttf") format("truetype"), url("//at.alicdn.com/t/font_1031158_1uhr8ri0pk5.svg#iconfont") format("svg"); }
</style></defs><path d="M0 0v1024h1024V0z" fill="#00628E" p-id="4875"></path><path d="M870.4 737.984v-4.352c-8.512-8.768-17.088-21.952-25.6-30.72-42.688-39.488-89.6-74.624-145.088-92.16a39.04 39.04 0 0 1-25.6-26.368c-17.024-30.72-29.824-65.792-46.912-96.512-12.8-26.368-21.312-57.088-34.112-83.392-38.4-70.208-89.6-122.88-153.6-171.136-42.688-30.72-89.6-52.672-145.088-57.088-8.512 0-17.088-4.352-25.6-13.12C238.912 145.536 209.088 128 170.688 128c-25.6 0-42.688 17.536-42.688 39.488 0 13.184 4.288 26.368 12.8 35.136 8.512 17.536 25.6 35.072 34.112 52.672 8.576 13.12 17.088 21.888 21.376 35.072 8.512 21.952 12.8 48.256 25.6 70.208 8.512 21.952 21.312 39.488 34.112 61.44v17.6c-17.088 52.608-25.6 105.28-12.8 157.952 8.512 30.72 17.088 57.088 38.4 78.976 21.312 17.6 46.912 8.832 51.2-17.536 0-4.352 0-8.768 4.288-17.536 4.224-13.184 4.224-26.368 8.512-39.488 12.8 21.952 25.6 48.256 42.688 65.792 17.024 21.952 38.4 35.136 55.424 57.088L448 720.448c-42.688-57.024-76.8-118.464-98.112-184.32-38.4 30.72-34.176 74.624-42.688 118.528a44.032 44.032 0 0 1-25.6-21.952c-25.6-52.672-29.888-109.76-12.8-162.368 4.288-13.184 8.512-21.952 8.512-35.136 0-8.768 0-17.536-4.224-21.952-21.376-21.952-34.176-52.672-42.688-78.976-12.8-43.904-29.888-87.808-64-122.88-4.288-8.768-8.512-17.536-8.512-26.368a28.672 28.672 0 0 1 0-26.304c4.224-8.768 12.8-8.768 21.312-4.416 29.888 8.832 55.488 21.952 76.8 39.552 8.512 4.352 17.088 8.768 25.6 8.768 25.6 4.352 51.2 4.352 76.8 13.12 12.8 8.832 29.888 13.184 42.688 21.952 85.312 52.672 145.024 127.296 183.424 219.456 17.088 48.256 42.688 92.16 64 140.416 8.576 13.184 17.088 26.368 34.176 30.72 55.424 13.184 98.112 43.904 140.8 78.976l17.024 17.6h-12.8a279.68 279.68 0 0 0-102.4 17.536c-8.512 4.416-12.8 8.768-8.512 17.536s8.512 13.184 12.8 21.952c21.312 26.368 46.912 39.488 72.512 57.088 25.6 13.12 51.2 30.72 72.576 43.84a59.136 59.136 0 0 0 17.024 13.184l4.288-4.416-25.6-26.304a212.544 212.544 0 0 0-81.088-70.208c-8.512-4.416-17.024-8.768-21.312-17.536a60.416 60.416 0 0 1-12.8-17.6c42.688-4.352 76.8-13.12 115.2-21.952z m-558.912-430.08c12.8-13.12 12.8-21.888 4.224-35.072-8.512-13.184-17.024-17.536-29.824-8.768 8.512 13.12 17.024 26.304 25.6 43.84z" fill="#FFFFFF" p-id="4876"></path></svg>