<?xml version="1.0" standalone="no"?><!DOCTYPE svg PUBLIC "-//W3C//DTD SVG 1.1//EN" "http://www.w3.org/Graphics/SVG/1.1/DTD/svg11.dtd"><svg t="1631212268267" class="icon" viewBox="0 0 1024 1024" version="1.1" xmlns="http://www.w3.org/2000/svg" p-id="4724" xmlns:xlink="http://www.w3.org/1999/xlink" width="200" height="200"><defs><style type="text/css"></style></defs><path d="M0 0h1024v1024H0z" fill="#6E7FB4" p-id="4725"></path><path d="M109.226667 744.106667L170.666667 378.88h139.946666c30.72 0 58.026667 13.653333 75.093334 34.133333 13.653333 20.48 30.72 58.026667 13.653333 119.466667C375.466667 638.293333 290.133333 648.533333 266.24 648.533333H208.213333l-17.066666 95.573334H109.226667zM262.826667 580.266667c10.24 0 61.44-3.413333 61.44-85.333334 0-17.066667-3.413333-27.306667-10.24-34.133333s-17.066667-6.826667-20.48-6.826667H238.933333L218.453333 580.266667h44.373334z" fill="" p-id="4726"></path><path d="M314.026667 389.12c51.2 0 109.226667 40.96 81.92 143.36-23.893333 102.4-105.813333 109.226667-129.706667 109.226667H201.386667l-17.066667 95.573333H119.466667l58.026666-344.746667 136.533334-3.413333m-105.813334 197.973333h54.613334c6.826667 0 68.266667-3.413333 68.266666-95.573333 3.413333-47.786667-27.306667-51.2-37.546666-51.2H232.106667l-23.893334 146.773333m105.813334-215.04H163.84l-3.413333 13.653334L102.4 730.453333l-3.413333 20.48h98.986666l3.413334-13.653333 13.653333-81.92h51.2c54.613333 0 122.88-30.72 143.36-119.466667 17.066667-64.853333 0-105.813333-17.066667-126.293333-17.066667-23.893333-47.786667-37.546667-78.506666-37.546667z m-20.48 85.333334c6.826667 0 10.24 0 17.066666 6.826666 3.413333 6.826667 6.826667 13.653333 6.826667 27.306667 0 75.093333-40.96 78.506667-51.2 78.506667H228.693333l17.066667-112.64h47.786667z" fill="#FFFFFF" p-id="4727"></path><path d="M535.893333 648.533333l3.413334-10.24s17.066667-81.92 23.893333-136.533333c0-3.413333 0-6.826667 3.413333-10.24 3.413333-13.653333 6.826667-30.72 0-37.546667 0 0-3.413333-3.413333-10.24-3.413333h-58.026666l-34.133334 197.973333h-78.506666l54.613333-365.226666h81.92l-17.066667 92.16h61.44c17.066667 0 44.373333 3.413333 61.44 23.893333 13.653333 13.653333 20.48 37.546667 17.066667 64.853333-10.24 85.333333-30.72 177.493333-30.72 177.493334v6.826666h-78.506667z" fill="" p-id="4728"></path><path d="M512 290.133333l-17.066667 95.573334h71.68c20.48 0 78.506667 6.826667 71.68 78.506666-10.24 85.333333-30.72 177.493333-30.72 177.493334H546.133333s17.066667-81.92 23.893334-136.533334c3.413333-23.893333 17.066667-61.44-17.066667-61.44h-64.853333l-34.133334 197.973334h-61.44L443.733333 293.546667l68.266667-3.413334m20.48-17.066666h-98.986667l-3.413333 13.653333-51.2 348.16-3.413333 20.48h95.573333l3.413333-13.653333 30.72-184.32h54.613334c3.413333 3.413333 0 23.893333-3.413334 30.72 0 3.413333 0 6.826667-3.413333 10.24-6.826667 54.613333-23.893333 136.533333-23.893333 136.533333l-3.413334 20.48h95.573334l3.413333-13.653333s20.48-92.16 30.72-177.493334c3.413333-30.72-3.413333-54.613333-17.066667-71.68-20.48-23.893333-51.2-27.306667-68.266666-27.306666h-51.2l13.653333-75.093334V273.066667z" fill="#FFFFFF" p-id="4729"></path><path d="M614.4 740.693333L675.84 375.466667h139.946667c30.72 0 58.026667 13.653333 75.093333 34.133333 13.653333 20.48 30.72 58.026667 13.653333 119.466667-27.306667 109.226667-112.64 116.053333-136.533333 116.053333h-58.026667l-17.066666 92.16H614.4v3.413333z m153.6-160.426666c10.24 0 61.44-3.413333 61.44-85.333334 0-17.066667-3.413333-27.306667-10.24-34.133333-6.826667-6.826667-17.066667-6.826667-20.48-6.826667h-54.613333l-23.893334 126.293334h47.786667z" fill="" p-id="4730"></path><path d="M815.786667 385.706667c51.2 0 109.226667 40.96 81.92 143.36-23.893333 102.4-105.813333 112.64-129.706667 112.64h-64.853333l-17.066667 92.16h-64.853333L682.666667 385.706667h133.12m-105.813334 201.386666h54.613334c6.826667 0 68.266667-3.413333 68.266666-95.573333 3.413333-47.786667-27.306667-51.2-37.546666-51.2h-61.44l-23.893334 146.773333m105.813334-218.453333h-146.773334l-3.413333 13.653333-58.026667 344.746667-3.413333 20.48h98.986667l3.413333-13.653333 13.653333-78.506667h51.2c54.613333 0 122.88-34.133333 143.36-122.88 17.066667-64.853333 0-105.813333-17.066666-126.293333-17.066667-23.893333-47.786667-37.546667-81.92-37.546667z m-20.48 88.746667c6.826667 0 10.24 0 17.066666 6.826666 3.413333 6.826667 6.826667 13.653333 6.826667 27.306667 0 75.093333-40.96 78.506667-51.2 78.506667h-37.546667l17.066667-112.64h47.786667z" fill="#FFFFFF" p-id="4731"></path></svg>