<?xml version="1.0" standalone="no"?><!DOCTYPE svg PUBLIC "-//W3C//DTD SVG 1.1//EN" "http://www.w3.org/Graphics/SVG/1.1/DTD/svg11.dtd"><svg t="1631212048185" class="icon" viewBox="0 0 1024 1024" version="1.1" xmlns="http://www.w3.org/2000/svg" p-id="2293" xmlns:xlink="http://www.w3.org/1999/xlink" width="200" height="200"><defs><style type="text/css"></style></defs><path d="M993.882353 512c0 265.637647-216.184471 481.882353-481.882353 481.882353s-481.882353-216.244706-481.882353-481.882353 216.184471-481.882353 481.882353-481.882353 481.882353 216.244706 481.882353 481.882353zM971.836235 512c0-253.289412-206.486588-459.836235-459.836235-459.836235s-459.836235 206.546824-459.836235 459.836235 206.486588 459.836235 459.836235 459.836235 459.836235-206.546824 459.836235-459.836235zM134.445176 343.642353l197.391059 540.551529c-138.24-67.282824-233.411765-208.715294-233.411765-372.193882 0-59.632941 12.950588-116.736 36.020706-168.357647zM759.386353 624.941176l-40.899765 137.697882-149.504-444.175059c0 0 24.756706-1.626353 47.344941-4.336941 22.046118-2.710588 19.395765-35.538824-2.650353-33.852235-67.222588 4.818824-110.290824 5.360941-110.290824 5.360941s-40.297412-0.602353-108.604235-5.421176c-22.588235-1.626353-25.298824 32.225882-2.710588 33.852235 20.961882 2.168471 43.008 4.397176 43.008 4.397176l64.512 176.368941-90.352941 271.058824-150.588235-447.427765c0 0 24.756706-1.626353 47.344941-4.336941 22.046118-2.710588 19.395765-35.538824-2.650353-33.852235-66.740706 4.818824-110.290824 5.360941-110.290824 5.360941-7.529412 0-16.624941-0.542118-26.322824-0.542118 73.667765-112.459294 200.583529-186.669176 345.268706-186.669176 107.580235 0 205.462588 41.441882 279.130353 108.664471-1.626353 0-3.734588 0-5.360941 0-40.357647 0-69.391059 34.996706-69.391059 73.185882 0 33.852235 19.877647 62.403765 40.839529 96.737882 16.203294 27.467294 33.852235 62.945882 33.852235 114.085647 0.060235 35.358118-14.396235 76.318118-31.683765 133.842824zM646.384941 896.060235c0.542118 2.108235 1.626353 4.216471 2.710588 5.903059-43.008 15.058824-88.726588 23.672471-137.155765 23.672471-40.297412 0-79.570824-6.023529-116.736-17.227294l123.723294-360.267294 127.457882 347.919059zM925.575529 512c0 152.696471-82.823529 285.575529-206.004706 357.135059l126.373647-364.664471c20.961882-60.295529 31.744-106.435765 31.744-148.48 0-14.998588-1.084235-29.033412-3.252706-42.465882 32.346353 59.151059 51.139765 126.433882 51.139765 198.475294z" p-id="2294"></path></svg>